<?xml version="1.0" encoding="utf-8"?>
<!-- Generator: Adobe Illustrator 26.0.1, SVG Export Plug-In . SVG Version: 6.00 Build 0)  -->
<svg version="1.1" id="Capa_1" xmlns="http://www.w3.org/2000/svg" xmlns:xlink="http://www.w3.org/1999/xlink" x="0px" y="0px"
	 viewBox="0 0 131.7 33.8" style="enable-background:new 0 0 131.7 33.8;" xml:space="preserve">
<style type="text/css">
	.st0{fill:#FFFFFF;}
</style>
<g>
	<path class="st0" d="M32.8,32.4v-11c0-2.3-1-3.5-2.8-3.5c-1.9,0-2.9,1.1-2.9,3.5v11h-5.6v-11c0-2.3-0.9-3.5-2.8-3.5
		c-1.9,0-2.8,1.1-2.8,3.5v11h-5.6V20.7c0-2.4,0.8-4.2,2.5-5.4c1.5-1.1,3.5-1.6,6-1.6c2.5,0,4.4,0.6,5.6,2c1-1.3,2.9-2,5.6-2
		c2.5,0,4.5,0.5,5.9,1.6c1.7,1.2,2.5,3,2.5,5.4v11.6H32.8z"/>
	<path class="st0" d="M101.4,32.3V0.9h5.6v31.4L101.4,32.3L101.4,32.3z"/>
	<path class="st0" d="M94.2,32.3v-1.9c-0.5,0.7-1.4,1.2-2.5,1.6c-1.1,0.4-2.1,0.5-3,0.5c-2.7,0-4.8-0.9-6.4-2.7
		c-1.6-1.8-2.4-4.1-2.4-6.8c0-2.7,0.8-4.9,2.4-6.7c1.4-1.6,3.7-2.7,6.3-2.7c3,0,4.7,1.1,5.7,2.4V0.9h5.5v31.4L94.2,32.3L94.2,32.3z
		 M94.2,21.8c0-1-0.5-2-1.4-2.9c-0.9-0.9-1.9-1.4-2.9-1.4c-1.4,0-2.6,0.6-3.4,1.7c-0.7,1-1.1,2.3-1.1,3.8s0.4,2.7,1.1,3.7
		c0.8,1.2,2,1.8,3.4,1.8c0.9,0,1.8-0.4,2.8-1.2c1-0.8,1.5-1.6,1.5-2.5L94.2,21.8L94.2,21.8z"/>
	<path class="st0" d="M69.2,32.8c-2.8,0-5.2-0.9-7-2.7c-1.9-1.8-2.8-4.1-2.8-7c0-2.8,0.9-5.1,2.8-6.9c1.9-1.8,4.2-2.7,7-2.7
		s5.2,0.9,7,2.7c1.9,1.8,2.8,4.1,2.8,6.9c0,2.8-0.9,5.1-2.8,7C74.4,31.9,72,32.8,69.2,32.8z M69.2,18c-1.4,0-2.4,0.5-3.1,1.5
		c-0.7,1-1.1,2.2-1.1,3.6c0,1.4,0.3,2.6,1,3.6c0.8,1.1,1.8,1.6,3.2,1.6s2.4-0.5,3.2-1.6c0.7-1,1.1-2.2,1.1-3.6c0-1.4-0.3-2.6-1-3.6
		C71.7,18.5,70.6,18,69.2,18z"/>
	<path class="st0" d="M49,32.8c-2.8,0-5.2-0.9-7-2.7c-1.9-1.8-2.8-4.1-2.8-7c0-2.8,0.9-5.1,2.8-6.9c1.9-1.8,4.2-2.7,7-2.7
		c2.8,0,5.2,0.9,7,2.7c1.9,1.8,2.8,4.1,2.8,6.9c0,2.8-0.9,5.1-2.8,7C54.2,31.9,51.8,32.8,49,32.8z M49,18c-1.4,0-2.4,0.5-3.1,1.5
		c-0.7,1-1.1,2.2-1.1,3.6c0,1.4,0.3,2.6,1,3.6c0.8,1.1,1.8,1.6,3.2,1.6s2.4-0.5,3.2-1.6c0.7-1,1.1-2.2,1.1-3.6c0-1.4-0.3-2.6-1-3.6
		C51.4,18.5,50.3,18,49,18z"/>
	<path class="st0" d="M113.6,24.9c0.1,1.3,1.9,4.2,4.7,4.2c2.8,0,4.1-1.6,4.1-2.2l5.9,0c-0.6,2-3.2,6.1-10.1,6.1
		c-2.9,0-5.5-0.9-7.4-2.7c-1.9-1.8-2.8-4.1-2.8-7c0-3,0.9-5.3,2.8-7.1c1.9-1.7,4.3-2.6,7.3-2.6c3.3,0,5.8,1.1,7.6,3.2
		c1.7,2,2.5,4.7,2.5,8.1L113.6,24.9L113.6,24.9z M122.7,21.4c-0.2-1.2-0.7-2.2-1.5-3c-0.9-0.8-1.9-1.2-3-1.2c-1.2,0-2.1,0.4-2.9,1.2
		c-0.8,0.8-1.3,1.8-1.6,3L122.7,21.4L122.7,21.4z"/>
	<path class="st0" d="M21.1,12.8l5.6-4.1l-0.1-0.2c-10,1.2-14.6,2.1-23.2,7.1l0.1,0.2h0.7c-0.1,0.7-0.2,2.4,0,5
		c-1,2.8,0,4.7,0.9,6.7c0.1-2.1,0.1-4.5-0.5-6.8c-0.1-2.5,0-4.2,0-4.9l5.7,0c0,0,0,1.7,0.2,3.4c5.1,1.8,10.3,0,13-4.4
		C22.6,13.9,21.1,12.8,21.1,12.8z"/>
</g>
</svg>
